<svg xmlns="http://www.w3.org/2000/svg" width="64" height="64" viewBox="0 0 64 64">
  <g id="b" transform="translate(0 -0.065)">
    <rect id="사각형_205" data-name="사각형 205" width="64" height="64" transform="translate(0 0.065)" fill="none"/>
    <g id="그룹_540" data-name="그룹 540" transform="translate(7.11 10.731)">
      <path id="패스_406" data-name="패스 406" d="M19.987,26.315A1.483,1.483,0,0,1,18.5,24.83V14.094a1.484,1.484,0,1,1,2.968,0V24.83a1.483,1.483,0,0,1-1.484,1.484" transform="translate(4.893 2.826)" fill="#888"/>
      <path id="패스_407" data-name="패스 407" d="M20.049,27.109a1.667,1.667,0,0,1-1.18-.5,1.635,1.635,0,0,1-.482-1.164,1.8,1.8,0,0,1,.117-.65,1.659,1.659,0,0,1,.365-.53A1.7,1.7,0,0,1,19.4,23.9a1.62,1.62,0,0,1,.963-.082,2.476,2.476,0,0,1,.316.082c.1.05.2.1.283.151a1.572,1.572,0,0,1,.248.217,1.659,1.659,0,0,1,.365.53,1.793,1.793,0,0,1,.134.65,1.625,1.625,0,0,1-.134.631,1.427,1.427,0,0,1-.365.533,1.653,1.653,0,0,1-1.164.5" transform="translate(4.837 8.641)" fill="#888"/>
      <path id="패스_408" data-name="패스 408" d="M24.389-.5A3.96,3.96,0,0,1,27.8,1.452L48.726,37.029a3.958,3.958,0,0,1-3.412,5.965H3.458A3.958,3.958,0,0,1,.046,37.029L20.974,1.451A3.976,3.976,0,0,1,24.389-.5ZM45.314,40.15a1.115,1.115,0,0,0,.961-1.679L25.347,2.893a1.123,1.123,0,0,0-.4-.4,1.093,1.093,0,0,0-.56-.153,1.107,1.107,0,0,0-.963.55L2.5,38.471a1.115,1.115,0,0,0,.961,1.679Z" transform="translate(0.5 0.5)" fill="#888"/>
    </g>
  </g>
</svg>
