<?xml version="1.0" encoding="iso-8859-1"?>
<!-- Generator: Adobe Illustrator 19.0.0, SVG Export Plug-In . SVG Version: 6.00 Build 0)  -->
<svg version="1.1" id="Capa_1" xmlns="http://www.w3.org/2000/svg" xmlns:xlink="http://www.w3.org/1999/xlink" x="0px" y="0px"
	 viewBox="0 0 490 490" style="enable-background:new 0 0 490 490;" xml:space="preserve">
<g>
	<path d="M417.418,136.155l41.024-41.24l-43.116-42.896L373.652,93.92c-20.224-14.732-43.051-26.091-67.657-33.238V32.838
		C305.995,14.733,291.262,0,273.148,0h-56.306c-18.104,0-32.838,14.733-32.838,32.838V60.68
		C92.842,87.158,26.014,171.422,26.014,271.009C26.014,391.764,124.249,490,244.994,490c120.755,0,218.991-98.236,218.991-218.991
		C463.986,220.186,446.579,173.355,417.418,136.155z M443.31,281.217c-2.396,47.073-21.267,89.868-50.94,122.731l-16.839-16.839
		l-14.436,14.435l16.839,16.84c-32.863,29.674-75.659,48.545-122.731,50.94v-23.916h-20.417v23.916
		c-47.071-2.395-89.863-21.266-122.723-50.938l16.842-16.842l-14.435-14.435l-16.842,16.842
		c-29.672-32.864-48.542-75.66-50.938-122.734h23.915v-20.416H46.69c2.395-47.073,21.265-89.867,50.936-122.728l16.843,16.836
		l14.435-14.436l-16.844-16.835c32.861-29.67,75.653-48.539,122.725-50.935V96.62h20.417V72.704
		c47.073,2.396,89.869,21.265,122.732,50.937l-16.841,16.833l14.436,14.436l16.841-16.834
		c29.673,32.861,48.543,75.653,50.939,122.726h-23.916v20.416H443.31z M415.406,80.889l14.166,14.106l-25.523,25.653
		c-4.58-4.842-9.382-9.471-14.383-13.881L415.406,80.889z M204.421,32.838c0-6.849,5.573-12.421,12.421-12.421h56.306
		c6.858,0,12.431,5.573,12.431,12.421v22.975c-13.157-2.475-26.719-3.785-40.584-3.785c-13.861,0-27.421,1.31-40.574,3.784V32.838z"
		/>
	<path d="M330.998,108.443l17.486,10.527l-94.745,157.302l-17.486-10.527L330.998,108.443z"/>
</g>
<g>
</g>
<g>
</g>
<g>
</g>
<g>
</g>
<g>
</g>
<g>
</g>
<g>
</g>
<g>
</g>
<g>
</g>
<g>
</g>
<g>
</g>
<g>
</g>
<g>
</g>
<g>
</g>
<g>
</g>
</svg>
